<svg width="32" height="32" viewBox="0 0 32 32" fill="none" xmlns="http://www.w3.org/2000/svg">
  <rect width="32" height="32" rx="8" fill="#3B82F6"/>
  <path d="M16 6C20.9706 6 25 10.0294 25 15C25 19.9706 20.9706 24 16 24C11.0294 24 7 19.9706 7 15C7 10.0294 11.0294 6 16 6Z" fill="white" fill-opacity="0.2"/>
  <path d="M16 8C19.866 8 23 11.134 23 15C23 18.866 19.866 22 16 22C12.134 22 9 18.866 9 15C9 11.134 12.134 8 16 8Z" fill="white" fill-opacity="0.4"/>
  <path d="M16 10C18.7614 10 21 12.2386 21 15C21 17.7614 18.7614 20 16 20C13.2386 20 11 17.7614 11 15C11 12.2386 13.2386 10 16 10Z" fill="white"/>
  <path d="M16 12C17.6569 12 19 13.3431 19 15C19 16.6569 17.6569 18 16 18C14.3431 18 13 16.6569 13 15C13 13.3431 14.3431 12 16 12Z" fill="#3B82F6"/>
  <circle cx="16" cy="15" r="1" fill="white"/>
  
  <!-- Wind/Air particles -->
  <path d="M8 27L24 27" stroke="white" stroke-width="1.5" stroke-linecap="round" opacity="0.6"/>
  <path d="M6 29L26 29" stroke="white" stroke-width="1" stroke-linecap="round" opacity="0.4"/>
  <path d="M10 25L22 25" stroke="white" stroke-width="1" stroke-linecap="round" opacity="0.3"/>
</svg>
